{
    "asset" : {
        "generator" : "Khronos glTF Blender I/O v1.7.33",
        "version" : "2.0"
    },
    "scene" : 1,
    "scenes" : [
        {
            "name" : "cube"
        },
        {
            "name" : "gltf one ",
            "nodes" : [
                0
            ]
        },
        {
            "name" : "Scene"
        }
    ],
    "nodes" : [
        {
            "mesh" : 0,
            "name" : "room",
            "scale" : [
                1.2059645652770996,
                1.2059645652770996,
                1.2059645652770996
            ]
        }
    ],
    "materials" : [
        {
            "doubleSided" : true,
            "name" : "Dirty Camo.001",
            "pbrMetallicRoughness" : {}
        },
        {
            "doubleSided" : true,
            "name" : "Material.011",
            "pbrMetallicRoughness" : {
                "baseColorFactor" : [
                    0.17582519352436066,
                    0.052489422261714935,
                    0.005963303614407778,
                    1
                ],
                "metallicFactor" : 0,
                "roughnessFactor" : 0.5
            }
        },
        {
            "doubleSided" : true,
            "name" : "Material.021",
            "pbrMetallicRoughness" : {
                "baseColorFactor" : [
                    0.2139877825975418,
                    0.13262201845645905,
                    0.17384585738182068,
                    1
                ],
                "metallicFactor" : 0,
                "roughnessFactor" : 0.5
            }
        },
        {
            "doubleSided" : true,
            "name" : "Material.020",
            "pbrMetallicRoughness" : {
                "metallicFactor" : 0,
                "roughnessFactor" : 0.5
            }
        },
        {
            "doubleSided" : true,
            "name" : "Material.019",
            "pbrMetallicRoughness" : {
                "baseColorFactor" : [
                    1,
                    0.25121575593948364,
                    0.055782198905944824,
                    1
                ],
                "metallicFactor" : 0,
                "roughnessFactor" : 0.5
            }
        },
        {
            "doubleSided" : true,
            "name" : "Material.013",
            "pbrMetallicRoughness" : {
                "baseColorFactor" : [
                    0.17781735956668854,
                    0.3883002996444702,
                    0.11355192214250565,
                    1
                ],
                "metallicFactor" : 0,
                "roughnessFactor" : 0.5
            }
        },
        {
            "doubleSided" : true,
            "name" : "Material.015",
            "pbrMetallicRoughness" : {
                "baseColorFactor" : [
                    0.009178143925964832,
                    0.8000000715255737,
                    0,
                    1
                ],
                "metallicFactor" : 0,
                "roughnessFactor" : 0.5
            }
        },
        {
            "doubleSided" : true,
            "name" : "Material.014",
            "pbrMetallicRoughness" : {
                "baseColorFactor" : [
                    0.011864857748150826,
                    0,
                    0.8000000715255737,
                    1
                ],
                "metallicFactor" : 0,
                "roughnessFactor" : 0.5
            }
        }
    ],
    "meshes" : [
        {
            "name" : "Plane.001",
            "primitives" : [
                {
                    "attributes" : {
                        "POSITION" : 0,
                        "NORMAL" : 1,
                        "TEXCOORD_0" : 2,
                        "TEXCOORD_1" : 3
                    },
                    "indices" : 4,
                    "material" : 0
                },
                {
                    "attributes" : {
                        "POSITION" : 5,
                        "NORMAL" : 6,
                        "TEXCOORD_0" : 7,
                        "TEXCOORD_1" : 8
                    },
                    "indices" : 9,
                    "material" : 1
                },
                {
                    "attributes" : {
                        "POSITION" : 10,
                        "NORMAL" : 11,
                        "TEXCOORD_0" : 12,
                        "TEXCOORD_1" : 13
                    },
                    "indices" : 14,
                    "material" : 2
                },
                {
                    "attributes" : {
                        "POSITION" : 15,
                        "NORMAL" : 16,
                        "TEXCOORD_0" : 17,
                        "TEXCOORD_1" : 18
                    },
                    "indices" : 19,
                    "material" : 3
                },
                {
                    "attributes" : {
                        "POSITION" : 20,
                        "NORMAL" : 21,
                        "TEXCOORD_0" : 22,
                        "TEXCOORD_1" : 23
                    },
                    "indices" : 24,
                    "material" : 4
                },
                {
                    "attributes" : {
                        "POSITION" : 25,
                        "NORMAL" : 26,
                        "TEXCOORD_0" : 27,
                        "TEXCOORD_1" : 28
                    },
                    "indices" : 29,
                    "material" : 5
                },
                {
                    "attributes" : {
                        "POSITION" : 30,
                        "NORMAL" : 31,
                        "TEXCOORD_0" : 32,
                        "TEXCOORD_1" : 33
                    },
                    "indices" : 34,
                    "material" : 6
                },
                {
                    "attributes" : {
                        "POSITION" : 35,
                        "NORMAL" : 36,
                        "TEXCOORD_0" : 37,
                        "TEXCOORD_1" : 38
                    },
                    "indices" : 39,
                    "material" : 7
                }
            ]
        }
    ],
    "accessors" : [
        {
            "bufferView" : 0,
            "componentType" : 5126,
            "count" : 17223,
            "max" : [
                1.1911159753799438,
                0.3577994108200073,
                0.5825135111808777
            ],
            "min" : [
                -1.2020807266235352,
                -0.40208035707473755,
                -0.473415732383728
            ],
            "type" : "VEC3"
        },
        {
            "bufferView" : 1,
            "componentType" : 5126,
            "count" : 17223,
            "type" : "VEC3"
        },
        {
            "bufferView" : 2,
            "componentType" : 5126,
            "count" : 17223,
            "type" : "VEC2"
        },
        {
            "bufferView" : 3,
            "componentType" : 5126,
            "count" : 17223,
            "type" : "VEC2"
        },
        {
            "bufferView" : 4,
            "componentType" : 5123,
            "count" : 28896,
            "type" : "SCALAR"
        },
        {
            "bufferView" : 5,
            "componentType" : 5126,
            "count" : 30,
            "max" : [
                0.7697709202766418,
                0.32122647762298584,
                0.2827412486076355
            ],
            "min" : [
                -1.059017300605774,
                -0.43697428703308105,
                -0.4754595160484314
            ],
            "type" : "VEC3"
        },
        {
            "bufferView" : 6,
            "componentType" : 5126,
            "count" : 30,
            "type" : "VEC3"
        },
        {
            "bufferView" : 7,
            "componentType" : 5126,
            "count" : 30,
            "type" : "VEC2"
        },
        {
            "bufferView" : 8,
            "componentType" : 5126,
            "count" : 30,
            "type" : "VEC2"
        },
        {
            "bufferView" : 9,
            "componentType" : 5123,
            "count" : 48,
            "type" : "SCALAR"
        },
        {
            "bufferView" : 10,
            "componentType" : 5126,
            "count" : 104,
            "max" : [
                1.0727254152297974,
                1.5241451263427734,
                1.5844627618789673
            ],
            "min" : [
                -1.8368476629257202,
                -0.6355044841766357,
                -1.3251104354858398
            ],
            "type" : "VEC3"
        },
        {
            "bufferView" : 11,
            "componentType" : 5126,
            "count" : 104,
            "type" : "VEC3"
        },
        {
            "bufferView" : 12,
            "componentType" : 5126,
            "count" : 104,
            "type" : "VEC2"
        },
        {
            "bufferView" : 13,
            "componentType" : 5126,
            "count" : 104,
            "type" : "VEC2"
        },
        {
            "bufferView" : 14,
            "componentType" : 5123,
            "count" : 162,
            "type" : "SCALAR"
        },
        {
            "bufferView" : 15,
            "componentType" : 5126,
            "count" : 261,
            "max" : [
                1.0727254152297974,
                1.5241451263427734,
                1.5844627618789673
            ],
            "min" : [
                -1.8368476629257202,
                -0.6355044841766357,
                -1.3251104354858398
            ],
            "type" : "VEC3"
        },
        {
            "bufferView" : 16,
            "componentType" : 5126,
            "count" : 261,
            "type" : "VEC3"
        },
        {
            "bufferView" : 17,
            "componentType" : 5126,
            "count" : 261,
            "type" : "VEC2"
        },
        {
            "bufferView" : 18,
            "componentType" : 5126,
            "count" : 261,
            "type" : "VEC2"
        },
        {
            "bufferView" : 19,
            "componentType" : 5123,
            "count" : 438,
            "type" : "SCALAR"
        },
        {
            "bufferView" : 20,
            "componentType" : 5126,
            "count" : 4,
            "max" : [
                1.0727254152297974,
                1.5241451263427734,
                -1.2029976844787598
            ],
            "min" : [
                -1.4273595809936523,
                -0.43697428703308105,
                -1.2029976844787598
            ],
            "type" : "VEC3"
        },
        {
            "bufferView" : 21,
            "componentType" : 5126,
            "count" : 4,
            "type" : "VEC3"
        },
        {
            "bufferView" : 22,
            "componentType" : 5126,
            "count" : 4,
            "type" : "VEC2"
        },
        {
            "bufferView" : 23,
            "componentType" : 5126,
            "count" : 4,
            "type" : "VEC2"
        },
        {
            "bufferView" : 24,
            "componentType" : 5123,
            "count" : 6,
            "type" : "SCALAR"
        },
        {
            "bufferView" : 25,
            "componentType" : 5126,
            "count" : 24,
            "max" : [
                0.8505457043647766,
                -0.406823068857193,
                1.4340358972549438
            ],
            "min" : [
                -1.1595302820205688,
                -0.4369741976261139,
                -0.5760400295257568
            ],
            "type" : "VEC3"
        },
        {
            "bufferView" : 26,
            "componentType" : 5126,
            "count" : 24,
            "type" : "VEC3"
        },
        {
            "bufferView" : 27,
            "componentType" : 5126,
            "count" : 24,
            "type" : "VEC2"
        },
        {
            "bufferView" : 28,
            "componentType" : 5126,
            "count" : 24,
            "type" : "VEC2"
        },
        {
            "bufferView" : 29,
            "componentType" : 5123,
            "count" : 36,
            "type" : "SCALAR"
        },
        {
            "bufferView" : 30,
            "componentType" : 5126,
            "count" : 1536,
            "max" : [
                -1.3939330577850342,
                0.6774752736091614,
                0.762846827507019
            ],
            "min" : [
                -1.524627447128296,
                0.5469056963920593,
                0.6321525573730469
            ],
            "type" : "VEC3"
        },
        {
            "bufferView" : 31,
            "componentType" : 5126,
            "count" : 1536,
            "type" : "VEC3"
        },
        {
            "bufferView" : 32,
            "componentType" : 5126,
            "count" : 1536,
            "type" : "VEC2"
        },
        {
            "bufferView" : 33,
            "componentType" : 5126,
            "count" : 1536,
            "type" : "VEC2"
        },
        {
            "bufferView" : 34,
            "componentType" : 5123,
            "count" : 2304,
            "type" : "SCALAR"
        },
        {
            "bufferView" : 35,
            "componentType" : 5126,
            "count" : 1536,
            "max" : [
                -1.3939330577850342,
                0.6774752736091614,
                0.09108621627092361
            ],
            "min" : [
                -1.524627447128296,
                0.5469056963920593,
                -0.03960806876420975
            ],
            "type" : "VEC3"
        },
        {
            "bufferView" : 36,
            "componentType" : 5126,
            "count" : 1536,
            "type" : "VEC3"
        },
        {
            "bufferView" : 37,
            "componentType" : 5126,
            "count" : 1536,
            "type" : "VEC2"
        },
        {
            "bufferView" : 38,
            "componentType" : 5126,
            "count" : 1536,
            "type" : "VEC2"
        },
        {
            "bufferView" : 39,
            "componentType" : 5123,
            "count" : 2304,
            "type" : "SCALAR"
        }
    ],
    "bufferViews" : [
        {
            "buffer" : 0,
            "byteLength" : 206676,
            "byteOffset" : 0
        },
        {
            "buffer" : 0,
            "byteLength" : 206676,
            "byteOffset" : 206676
        },
        {
            "buffer" : 0,
            "byteLength" : 137784,
            "byteOffset" : 413352
        },
        {
            "buffer" : 0,
            "byteLength" : 137784,
            "byteOffset" : 551136
        },
        {
            "buffer" : 0,
            "byteLength" : 57792,
            "byteOffset" : 688920
        },
        {
            "buffer" : 0,
            "byteLength" : 360,
            "byteOffset" : 746712
        },
        {
            "buffer" : 0,
            "byteLength" : 360,
            "byteOffset" : 747072
        },
        {
            "buffer" : 0,
            "byteLength" : 240,
            "byteOffset" : 747432
        },
        {
            "buffer" : 0,
            "byteLength" : 240,
            "byteOffset" : 747672
        },
        {
            "buffer" : 0,
            "byteLength" : 96,
            "byteOffset" : 747912
        },
        {
            "buffer" : 0,
            "byteLength" : 1248,
            "byteOffset" : 748008
        },
        {
            "buffer" : 0,
            "byteLength" : 1248,
            "byteOffset" : 749256
        },
        {
            "buffer" : 0,
            "byteLength" : 832,
            "byteOffset" : 750504
        },
        {
            "buffer" : 0,
            "byteLength" : 832,
            "byteOffset" : 751336
        },
        {
            "buffer" : 0,
            "byteLength" : 324,
            "byteOffset" : 752168
        },
        {
            "buffer" : 0,
            "byteLength" : 3132,
            "byteOffset" : 752492
        },
        {
            "buffer" : 0,
            "byteLength" : 3132,
            "byteOffset" : 755624
        },
        {
            "buffer" : 0,
            "byteLength" : 2088,
            "byteOffset" : 758756
        },
        {
            "buffer" : 0,
            "byteLength" : 2088,
            "byteOffset" : 760844
        },
        {
            "buffer" : 0,
            "byteLength" : 876,
            "byteOffset" : 762932
        },
        {
            "buffer" : 0,
            "byteLength" : 48,
            "byteOffset" : 763808
        },
        {
            "buffer" : 0,
            "byteLength" : 48,
            "byteOffset" : 763856
        },
        {
            "buffer" : 0,
            "byteLength" : 32,
            "byteOffset" : 763904
        },
        {
            "buffer" : 0,
            "byteLength" : 32,
            "byteOffset" : 763936
        },
        {
            "buffer" : 0,
            "byteLength" : 12,
            "byteOffset" : 763968
        },
        {
            "buffer" : 0,
            "byteLength" : 288,
            "byteOffset" : 763980
        },
        {
            "buffer" : 0,
            "byteLength" : 288,
            "byteOffset" : 764268
        },
        {
            "buffer" : 0,
            "byteLength" : 192,
            "byteOffset" : 764556
        },
        {
            "buffer" : 0,
            "byteLength" : 192,
            "byteOffset" : 764748
        },
        {
            "buffer" : 0,
            "byteLength" : 72,
            "byteOffset" : 764940
        },
        {
            "buffer" : 0,
            "byteLength" : 18432,
            "byteOffset" : 765012
        },
        {
            "buffer" : 0,
            "byteLength" : 18432,
            "byteOffset" : 783444
        },
        {
            "buffer" : 0,
            "byteLength" : 12288,
            "byteOffset" : 801876
        },
        {
            "buffer" : 0,
            "byteLength" : 12288,
            "byteOffset" : 814164
        },
        {
            "buffer" : 0,
            "byteLength" : 4608,
            "byteOffset" : 826452
        },
        {
            "buffer" : 0,
            "byteLength" : 18432,
            "byteOffset" : 831060
        },
        {
            "buffer" : 0,
            "byteLength" : 18432,
            "byteOffset" : 849492
        },
        {
            "buffer" : 0,
            "byteLength" : 12288,
            "byteOffset" : 867924
        },
        {
            "buffer" : 0,
            "byteLength" : 12288,
            "byteOffset" : 880212
        },
        {
            "buffer" : 0,
            "byteLength" : 4608,
            "byteOffset" : 892500
        }
    ],
    "buffers" : [
        {
            "byteLength" : 897108,
            "uri" : "data:application/octet-stream;base64,"
        }
    ]
}
