{
  "accessors": [
    {
      "bufferView": 2,
      "componentType": 5126,
      "count": 11147,
      "max": [
        9.297637939453125,
        3.5629920959472656,
        1.039370059967041
      ],
      "min": [
        -8.77952766418457,
        -3.5629920959472656,
        -3.5527141023169746e-15
      ],
      "type": "VEC3"
    },
    {
      "bufferView": 2,
      "byteOffset": 133764,
      "componentType": 5126,
      "count": 11147,
      "max": [
        1.0,
        1.0,
        1.0
      ],
      "min": [
        -1.0,
        -1.0,
        -1.0
      ],
      "type": "VEC3"
    },
    {
      "bufferView": 1,
      "componentType": 5126,
      "count": 11147,
      "max": [
        0.9874408841133118,
        0.5
      ],
      "min": [
        -1.0,
        -0.5
      ],
      "type": "VEC2"
    },
    {
      "bufferView": 0,
      "componentType": 5125,
      "count": 28572,
      "type": "SCALAR"
    },
    {
      "bufferView": 2,
      "byteOffset": 267528,
      "componentType": 5126,
      "count": 4,
      "max": [
        -2.3820619583129883,
        -1.8665659427642822,
        0.30178919434547424
      ],
      "min": [
        -2.4756009578704834,
        -1.960103988647461,
        0.19685040414333344
      ],
      "type": "VEC3"
    },
    {
      "bufferView": 2,
      "byteOffset": 267576,
      "componentType": 5126,
      "count": 4,
      "max": [
        0.7071068286895752,
        0.7071068286895752,
        0.0
      ],
      "min": [
        0.7071068286895752,
        0.7071068286895752,
        0.0
      ],
      "type": "VEC3"
    },
    {
      "bufferView": 1,
      "byteOffset": 89176,
      "componentType": 5126,
      "count": 4,
      "max": [
        1.0,
        1.0
      ],
      "min": [
        0.0,
        0.0
      ],
      "type": "VEC2"
    },
    {
      "bufferView": 0,
      "byteOffset": 114288,
      "componentType": 5125,
      "count": 6,
      "type": "SCALAR"
    },
    {
      "bufferView": 2,
      "byteOffset": 267624,
      "componentType": 5126,
      "count": 4,
      "max": [
        -2.246006965637207,
        -1.7305099964141846,
        0.19685040414333344
      ],
      "min": [
        -2.4756009578704834,
        -1.960103988647461,
        0.19685040414333344
      ],
      "type": "VEC3"
    },
    {
      "bufferView": 2,
      "byteOffset": 267672,
      "componentType": 5126,
      "count": 4,
      "max": [
        0.0,
        0.0,
        -1.0
      ],
      "min": [
        0.0,
        0.0,
        -1.0
      ],
      "type": "VEC3"
    },
    {
      "bufferView": 1,
      "byteOffset": 89208,
      "componentType": 5126,
      "count": 4,
      "max": [
        1.0,
        1.0
      ],
      "min": [
        0.0,
        0.0
      ],
      "type": "VEC2"
    },
    {
      "bufferView": 0,
      "byteOffset": 114312,
      "componentType": 5125,
      "count": 6,
      "type": "SCALAR"
    },
    {
      "bufferView": 2,
      "byteOffset": 267720,
      "componentType": 5126,
      "count": 4,
      "max": [
        -2.4609220027923584,
        -1.5155940055847168,
        0.19685040414333344
      ],
      "min": [
        -2.6905159950256348,
        -1.7451879978179932,
        0.19685040414333344
      ],
      "type": "VEC3"
    },
    {
      "bufferView": 2,
      "byteOffset": 267768,
      "componentType": 5126,
      "count": 4,
      "max": [
        0.0,
        0.0,
        -1.0
      ],
      "min": [
        0.0,
        0.0,
        -1.0
      ],
      "type": "VEC3"
    },
    {
      "bufferView": 1,
      "byteOffset": 89240,
      "componentType": 5126,
      "count": 4,
      "max": [
        1.0,
        1.0
      ],
      "min": [
        0.0,
        0.0
      ],
      "type": "VEC2"
    },
    {
      "bufferView": 0,
      "byteOffset": 114336,
      "componentType": 5125,
      "count": 6,
      "type": "SCALAR"
    },
    {
      "bufferView": 2,
      "byteOffset": 267816,
      "componentType": 5126,
      "count": 4,
      "max": [
        -2.596977949142456,
        -1.6516499519348145,
        0.30178919434547424
      ],
      "min": [
        -2.6905159950256348,
        -1.7451879978179932,
        0.19685040414333344
      ],
      "type": "VEC3"
    },
    {
      "bufferView": 2,
      "byteOffset": 267864,
      "componentType": 5126,
      "count": 4,
      "max": [
        0.7071068286895752,
        0.7071068286895752,
        0.0
      ],
      "min": [
        0.7071068286895752,
        0.7071068286895752,
        0.0
      ],
      "type": "VEC3"
    },
    {
      "bufferView": 1,
      "byteOffset": 89272,
      "componentType": 5126,
      "count": 4,
      "max": [
        1.0,
        1.0
      ],
      "min": [
        0.0,
        0.0
      ],
      "type": "VEC2"
    },
    {
      "bufferView": 0,
      "byteOffset": 114360,
      "componentType": 5125,
      "count": 6,
      "type": "SCALAR"
    },
    {
      "bufferView": 2,
      "byteOffset": 267912,
      "componentType": 5126,
      "count": 5181,
      "max": [
        9.297637939453125,
        2.1927266120910645,
        1.039370059967041
      ],
      "min": [
        -7.540445804595947,
        -2.133103132247925,
        0.19685040414333344
      ],
      "type": "VEC3"
    },
    {
      "bufferView": 2,
      "byteOffset": 330084,
      "componentType": 5126,
      "count": 5181,
      "max": [
        1.0,
        1.0,
        1.0
      ],
      "min": [
        -1.0,
        -1.0,
        -1.0
      ],
      "type": "VEC3"
    },
    {
      "bufferView": 1,
      "byteOffset": 89304,
      "componentType": 5126,
      "count": 5181,
      "max": [
        0.2367510050535202,
        0.2824993133544922
      ],
      "min": [
        -0.2367510050535202,
        -0.27370190620422363
      ],
      "type": "VEC2"
    },
    {
      "bufferView": 0,
      "byteOffset": 114384,
      "componentType": 5125,
      "count": 9510,
      "type": "SCALAR"
    },
    {
      "bufferView": 2,
      "byteOffset": 392256,
      "componentType": 5126,
      "count": 240,
      "max": [
        8.93093490600586,
        0.600011944770813,
        0.33464568853378296
      ],
      "min": [
        6.843139171600342,
        -0.49447593092918396,
        0.21653543412685394
      ],
      "type": "VEC3"
    },
    {
      "bufferView": 2,
      "byteOffset": 395136,
      "componentType": 5126,
      "count": 240,
      "max": [
        1.0,
        1.0,
        1.0
      ],
      "min": [
        -1.0,
        -1.0,
        -1.0
      ],
      "type": "VEC3"
    },
    {
      "bufferView": 0,
      "byteOffset": 152424,
      "componentType": 5125,
      "count": 420,
      "type": "SCALAR"
    }
  ],
  "asset": {
    "extras": {
      "author": "ismadi (https://sketchfab.com/abgnokia)",
      "license": "CC-BY-4.0 (http://creativecommons.org/licenses/by/4.0/)",
      "source": "https://sketchfab.com/3d-models/lgt8f328p-lqfp32-7eaa2612da2149c4a357ecd9d625eee0",
      "title": "LGT8F328P LQFP32"
    },
    "generator": "Sketchfab-12.24.0",
    "version": "2.0"
  },
  "bufferViews": [
    {
      "buffer": 0,
      "byteLength": 154104,
      "name": "floatBufferViews",
      "target": 34963
    },
    {
      "buffer": 0,
      "byteLength": 130752,
      "byteOffset": 154104,
      "byteStride": 8,
      "name": "floatBufferViews",
      "target": 34962
    },
    {
      "buffer": 0,
      "byteLength": 398016,
      "byteOffset": 284856,
      "byteStride": 12,
      "name": "floatBufferViews",
      "target": 34962
    }
  ],
  "buffers": [
    {
      "byteLength": 682872,
      "uri": "scene.bin"
    }
  ],
  "images": [
    {
      "uri": "textures/material_2_baseColor.jpeg"
    },
    {
      "uri": "textures/material_2_1_baseColor.jpeg"
    },
    {
      "uri": "textures/material_2_2_baseColor.jpeg"
    },
    {
      "uri": "textures/material_2_3_baseColor.jpeg"
    },
    {
      "uri": "textures/material_2_4_baseColor.jpeg"
    },
    {
      "uri": "textures/material_2_0_baseColor.jpeg"
    }
  ],
  "materials": [
    {
      "name": "material_2",
      "pbrMetallicRoughness": {
        "baseColorTexture": {
          "index": 0
        },
        "metallicFactor": 0.0,
        "roughnessFactor": 0.6
      }
    },
    {
      "name": "material_2_1",
      "pbrMetallicRoughness": {
        "baseColorTexture": {
          "index": 1
        },
        "metallicFactor": 0.0,
        "roughnessFactor": 0.6
      }
    },
    {
      "name": "material_2_2",
      "pbrMetallicRoughness": {
        "baseColorTexture": {
          "index": 2
        },
        "metallicFactor": 0.0,
        "roughnessFactor": 0.6
      }
    },
    {
      "name": "material_2_3",
      "pbrMetallicRoughness": {
        "baseColorTexture": {
          "index": 3
        },
        "metallicFactor": 0.5,
        "roughnessFactor": 0.0
      }
    },
    {
      "name": "material_2_4",
      "pbrMetallicRoughness": {
        "baseColorTexture": {
          "index": 4
        },
        "metallicFactor": 0.0,
        "roughnessFactor": 0.6
      }
    },
    {
      "name": "material_2_0",
      "pbrMetallicRoughness": {
        "baseColorTexture": {
          "index": 5
        },
        "metallicFactor": 0.0,
        "roughnessFactor": 0.6
      }
    },
    {
      "name": "0134_DimGray",
      "pbrMetallicRoughness": {
        "baseColorFactor": [
          0.411765,
          0.411765,
          0.411765,
          1.0
        ],
        "metallicFactor": 0.0,
        "roughnessFactor": 0.6
      }
    }
  ],
  "meshes": [
    {
      "name": "Material2",
      "primitives": [
        {
          "attributes": {
            "NORMAL": 1,
            "POSITION": 0,
            "TEXCOORD_0": 2
          },
          "indices": 3,
          "material": 0,
          "mode": 4
        }
      ]
    },
    {
      "name": "Material3",
      "primitives": [
        {
          "attributes": {
            "NORMAL": 5,
            "POSITION": 4,
            "TEXCOORD_0": 6
          },
          "indices": 7,
          "material": 1,
          "mode": 4
        }
      ]
    },
    {
      "name": "Material4",
      "primitives": [
        {
          "attributes": {
            "NORMAL": 9,
            "POSITION": 8,
            "TEXCOORD_0": 10
          },
          "indices": 11,
          "material": 2,
          "mode": 4
        }
      ]
    },
    {
      "name": "Material3",
      "primitives": [
        {
          "attributes": {
            "NORMAL": 13,
            "POSITION": 12,
            "TEXCOORD_0": 14
          },
          "indices": 15,
          "material": 3,
          "mode": 4
        }
      ]
    },
    {
      "name": "Material4",
      "primitives": [
        {
          "attributes": {
            "NORMAL": 17,
            "POSITION": 16,
            "TEXCOORD_0": 18
          },
          "indices": 19,
          "material": 4,
          "mode": 4
        }
      ]
    },
    {
      "name": "Material3",
      "primitives": [
        {
          "attributes": {
            "NORMAL": 21,
            "POSITION": 20,
            "TEXCOORD_0": 22
          },
          "indices": 23,
          "material": 5,
          "mode": 4
        }
      ]
    },
    {
      "name": "Material3",
      "primitives": [
        {
          "attributes": {
            "NORMAL": 25,
            "POSITION": 24
          },
          "indices": 26,
          "material": 6,
          "mode": 4
        }
      ]
    }
  ],
  "nodes": [
    {
      "children": [
        1
      ],
      "matrix": [
        1.0,
        0.0,
        0.0,
        0.0,
        0.0,
        2.220446049250313e-16,
        -1.0,
        0.0,
        0.0,
        1.0,
        2.220446049250313e-16,
        0.0,
        0.0,
        0.0,
        0.0,
        1.0
      ],
      "name": "Sketchfab_model"
    },
    {
      "children": [
        2,
        3,
        4,
        5,
        6,
        7,
        8,
        9
      ],
      "name": "Collada visual scene group"
    },
    {
      "mesh": 0,
      "name": "Material2"
    },
    {
      "mesh": 1,
      "name": "Material3"
    },
    {
      "mesh": 2,
      "name": "Material4"
    },
    {
      "mesh": 3,
      "name": "Material3"
    },
    {
      "mesh": 4,
      "name": "Material4"
    },
    {
      "mesh": 5,
      "name": "Material3"
    },
    {
      "mesh": 6,
      "name": "Material3"
    },
    {
      "children": [
        10,
        12,
        14
      ],
      "name": "SketchUp"
    },
    {
      "children": [
        11
      ],
      "matrix": [
        -0.88853,
        0.4588185,
        2.775558e-17,
        0.0,
        -0.3451934,
        -0.6684881,
        0.6587604,
        0.0,
        0.3022514,
        0.5853283,
        0.7523528,
        0.0,
        18.50633,
        31.53689,
        41.81292,
        1.0
      ],
      "name": "skp_camera_Last_Saved_SketchUp_View"
    },
    {
      "name": "ID1"
    },
    {
      "children": [
        13
      ],
      "matrix": [
        0.814137,
        -0.5777568,
        0.05812145,
        0.0,
        0.4739305,
        0.7189754,
        0.5083938,
        0.0,
        -0.3355159,
        -0.3863566,
        0.859161,
        0.0,
        -52.9235,
        -67.71275,
        158.6476,
        1.0
      ],
      "name": "skp_camera_Scene_5"
    },
    {
      "name": "ID2"
    },
    {
      "children": [
        15
      ],
      "matrix": [
        0.814137,
        -0.5777568,
        0.05812145,
        0.0,
        0.4739305,
        0.7189754,
        0.5083938,
        0.0,
        -0.3355159,
        -0.3863566,
        0.859161,
        0.0,
        -52.9235,
        -67.71275,
        158.6476,
        1.0
      ],
      "name": "skp_camera_Scene_2"
    },
    {
      "name": "ID3"
    }
  ],
  "samplers": [
    {
      "magFilter": 9729,
      "minFilter": 9987,
      "wrapS": 10497,
      "wrapT": 10497
    }
  ],
  "scene": 0,
  "scenes": [
    {
      "name": "Sketchfab_Scene",
      "nodes": [
        0
      ]
    }
  ],
  "textures": [
    {
      "sampler": 0,
      "source": 0
    },
    {
      "sampler": 0,
      "source": 1
    },
    {
      "sampler": 0,
      "source": 2
    },
    {
      "sampler": 0,
      "source": 3
    },
    {
      "sampler": 0,
      "source": 4
    },
    {
      "sampler": 0,
      "source": 5
    }
  ]
}
